<svg width="180" height="123" viewBox="0 0 180 123" fill="none" xmlns="http://www.w3.org/2000/svg">
<path d="M88.288 27.488C88.288 32.096 87.008 36.3627 84.448 40.288C81.9733 44.128 78.944 46.8587 75.36 48.48C71.776 50.016 68.2347 50.784 64.736 50.784C63.712 50.784 62.7307 50.7413 61.792 50.656C67.168 51.7653 72.0747 55.0933 76.512 60.64C78.56 63.1147 80.864 66.3147 83.424 70.24C85.984 74.08 87.776 76.7253 88.8 78.176C93.92 85.5147 99.04 91.488 104.16 96.096C115.083 105.995 129.12 111.456 146.272 112.48V113.76C141.579 117.088 135.691 119.477 128.608 120.928C124.427 121.781 120.245 122.208 116.064 122.208C111.968 122.208 107.616 121.611 103.008 120.416C98.4 119.221 93.8773 117.429 89.44 115.04C85.0027 112.651 80.48 109.195 75.872 104.672C71.3493 100.149 67.6373 95.5413 64.736 90.848C61.8347 86.0693 59.3173 81.5467 57.184 77.28C55.0507 72.928 53.0027 68.6613 51.04 64.48C49.1627 60.2987 48.0107 57.7387 47.584 56.8C45.1093 51.68 42.8907 48.8213 40.928 48.224V46.944H42.976C48.5227 46.944 53.088 44.768 56.672 40.416C58.72 37.9413 59.9147 35.3813 60.256 32.736C60.5973 30.0053 60.768 28.256 60.768 27.488C60.768 21.088 58.8907 16.4373 55.136 13.536C51.3813 10.5493 47.1147 9.056 42.336 9.056H36.704V82.656C36.704 84.8747 37.5147 86.7947 39.136 88.416C40.7573 89.952 42.6773 90.72 44.896 90.72H46.432V92H0.48V90.72H2.144C4.36267 90.72 6.24 89.952 7.776 88.416C9.39733 86.88 10.2507 85.0027 10.336 82.784V11.744C10.2507 8.58666 8.88533 6.24 6.24 4.70399C4.96 4.02133 3.59467 3.67999 2.144 3.67999H0.608V2.39999H50.528C63.2427 2.39999 72.8853 4.61866 79.456 9.056C85.344 13.0667 88.288 19.2107 88.288 27.488ZM179.066 70.24C179.066 73.9093 178.255 77.8347 176.634 82.016C175.013 86.112 172.41 89.9093 168.826 93.408C165.242 96.9067 160.634 99.7653 155.002 101.984C149.37 104.203 143.226 105.312 136.57 105.312C129.914 105.312 123.941 104.245 118.65 102.112C108.751 98.1867 102.309 91.3173 99.322 81.504C98.554 78.8587 98.17 76.384 98.17 74.08C98.17 66.656 100.431 59.7013 104.954 53.216L106.106 54.112C103.29 59.1467 101.882 64.0107 101.882 68.704C101.882 74.5067 103.333 79.6267 106.234 84.064C109.135 88.5013 113.018 91.9573 117.882 94.432C122.746 96.9067 127.695 98.144 132.73 98.144C137.85 98.144 142.159 97.3333 145.658 95.712C149.157 94.0907 151.717 91.9147 153.338 89.184C154.959 86.4533 155.77 83.5947 155.77 80.608C155.77 77.6213 154.703 74.592 152.57 71.52C150.437 68.3627 147.279 65.632 143.098 63.328L122.234 51.04C111.653 44.8107 106.362 36.7893 106.362 26.976C106.362 18.1867 109.434 11.4027 115.578 6.62399C120.698 2.61333 127.653 0.607994 136.442 0.607994C142.074 0.607994 149.242 1.03466 157.946 1.88799H167.93L165.242 22.752H163.962C163.962 18.0587 162.127 14.2613 158.458 11.36C154.789 8.45866 150.095 7.008 144.378 7.008C138.661 7.008 134.266 7.98933 131.194 9.952C128.122 11.9147 126.458 14.5173 126.202 17.76C125.946 19.9787 126.543 21.856 127.994 23.392C129.274 24.7573 130.554 25.824 131.834 26.592C133.114 27.2747 134.266 27.9147 135.29 28.512C136.314 29.1093 137.039 29.4933 137.466 29.664L161.402 43.36C166.778 46.3467 170.959 50.0587 173.946 54.496C177.359 59.5307 179.066 64.7787 179.066 70.24Z" fill="black"/>
</svg>
